<?xml version="1.0" encoding="UTF-8"?>
<svg id="Layer_1" data-name="Layer 1" xmlns="http://www.w3.org/2000/svg" viewBox="0 0 235.41 235.45">
  <defs>
    <style>
      .cls-1 {
        fill: #fff;
      }
    </style>
  </defs>
  <rect class="cls-1" x="207.12" y="216.62" width="9.5" height="9.3"/>
  <polygon class="cls-1" points="94.36 18.8 93.97 28.18 84.73 28.18 84.77 18.81 94.36 18.8"/>
  <polygon class="cls-1" points="94.23 37.68 94.23 47.14 84.77 47.05 84.73 37.68 94.23 37.68"/>
  <polygon class="cls-1" points="216.62 216.62 216.62 207.18 226.02 207.18 225.98 216.56 216.62 216.62"/>
  <polygon class="cls-1" points="113.11 225.91 113.06 207.18 122.36 207.18 122.36 216.53 131.87 216.58 131.83 225.92 113.11 225.91"/>
  <polygon class="cls-1" points="141.24 197.68 131.87 197.68 131.86 207.18 122.39 207.18 122.39 197.68 113.01 197.68 113.06 207.18 103.62 207.18 103.62 188.24 131.87 188.31 131.91 178.96 141.23 178.95 141.17 160.07 150.63 160.08 150.63 188.29 141.24 188.31 141.24 197.68"/>
  <polygon class="cls-1" points="178.67 131.79 160.13 131.8 160.13 122.44 178.83 122.45 178.67 131.79"/>
  <polygon class="cls-1" points="94.27 122.45 94.23 131.79 84.74 131.51 84.76 122.47 94.27 122.45"/>
  <path class="cls-1" d="M65.94,65.88V0S.04,0,.04,0v65.91s65.9-.03,65.9-.03ZM94.23,47.14l9.4-.06v-9.4s-9.39,0-9.39,0l-.26-9.5h9.65s0-9.4,0-9.4h-9.26s-.11-9.34-.11-9.34h9.37s-.01-9.39-.01-9.39h-18.88s0,18.73,0,18.73h-9.38s0,56.5,0,56.5h9.38s0-18.79,0-18.79l9.02-.08h.47s0-9.28,0-9.28ZM150.62,18.44v-8.98s9.51-.01,9.51-.01V.06s-9.51,0-9.51,0v9.37s-9.39-.04-9.39-.04V.06s-9.39.02-9.39.02v9.35s-9.45-.01-9.45-.01l-.03-9.35h-9.37s.01,9.39.01,9.39h9.34s0,9.32,0,9.32l-9.35.08v18.84s9.41,0,9.41,0l-.06-18.88h27.96s.31-.37.31-.37ZM235.4,65.88V0s-65.89,0-65.89,0v65.91s65.89-.03,65.89-.03ZM160.13,131.8v9.39s18.77,0,18.77,0l-.22-9.39h9.65s.05,9.39.05,9.39h9.36s.03-18.73.03-18.73h9.38s-.02-9.53-.02-9.53h-37.57s-.06-9.36-.06-9.36l9.4.02v-9.4s9.47,0,9.47,0v9.38s9.39-.02,9.39-.02v-18.85s18.88,0,18.88,0v-9.38s-47.08,0-47.08,0l-.06,9.07.45.31h8.91s.02,9.5.02,9.5h-9.36s0-9.19,0-9.19l-.13-.31h-9.25s0,9.5,0,9.5h-9.5s0-18.76,0-18.76l-.31-.13h-18.41s-.02-9.34-.02-9.34h9.31s.08-9.52.08-9.52l9.34.02v18.47s.31.38.31.38l9.19-.02v-18.87s-9.5,0-9.5,0v-18.73s9.5,0,9.5,0v-18.88s-9.19,0-9.19,0l-.31.13v9.25s-18.78,0-18.78,0l.04,18.75.54.13h8.81s0,9.36,0,9.36h-9.33s-.03-8.88-.03-8.88v-.45s-9.52-.03-9.52-.03v9.34s-9.34.03-9.34.03l-.04,9.49h-9.35s.01-9.52.01-9.52l-9.26.08-.12.53-.03,8.93h9.4s0,9,0,9l.33.37,9.05-.02v-9.35s9.35.04,9.35.04v18.71s-18.73,0-18.73,0v-9.25s-.32-.14-.32-.14h-9.06s0,28.26,0,28.26l9.38.02v-9.39s9.39,0,9.39,0l-.04,9.36-9.36.04v9.38s9.35-.01,9.35-.01l.05-9.38h9.34s0,9.35,0,9.35h-9.34s-.01,37.67-.01,37.67l9.39.11v-37.71s9.44-.05,9.44-.05l.09,9.51h18.7s0,9.35,0,9.35h9.5ZM56.51,93.87v-9.19s9.51,0,9.51,0l-.03-9.38H18.85s.01,9.38.01,9.38h-9.36s0-9.38,0-9.38H.01s0,18.88,0,18.88h18.86s0,18.7,0,18.7l-8.87.05h-.44s-.09,9.47-.09,9.47L0,122.45v37.61s9.49.02,9.49.02l.02-37.6,9.34-.05v9.35s18.46.02,18.46.02l.43-.45v-8.93s-18.83-.01-18.83-.01v-9.46s18.84-.01,18.84-.01v-9.36s-9.49-.05-9.49-.05l-.02-18.85h18.89s0,9.5,0,9.5h9.25s.13-.31.13-.31ZM235.39,94.18v-9.5s-9.38,0-9.38,0v9.5s9.38,0,9.38,0ZM84.74,131.51l-.02,9.67h9.52s0,9.51,0,9.51h9.39s0-28.26,0-28.26l-9.36.02-.04-9.53h-9.45s-.05,9.51-.05,9.51h-9.33s0-9.46,0-9.46h9.34s.01-18.77.01-18.77h-27.87s-.36.3-.36.3l-.03,9.06h-9.33s-.04,18.9-.04,18.9h28.21s.06,9.36.06,9.36l9.36-.29ZM216.63,103.56v-9.38s-9.51,0-9.51,0v9.39s9.51,0,9.51,0ZM9.52,112.36l-.04-8.81H0s0,9.41,0,9.41l9.38-.08.14-.53ZM226.03,131.82l9.36-.02v-18.88s-18.77,0-18.77,0v9.52s9.39.03,9.39.03l.02,9.35ZM38.15,131.8l-.42.16v9.22s-18.88,0-18.88,0v9.5s37.26,0,37.26,0l.4-.32v-9.18s9.51,0,9.51,0l-.02-9.38h-27.85ZM141.26,141.17l-.03-9.38h-9.36s-.01,9.39-.01,9.39h9.41ZM216.62,140.93v-9.13s-9.5,0-9.5,0v9.39s9.25,0,9.25,0l.25-.25ZM141.17,160.07h-9.3s-.02,9.35-.02,9.35h-9.45s0-9.33,0-9.33l-9.38-.03v9.34s-18.63.06-18.63.06l-.13.54-.03,8.94h9.4s0,9.3,0,9.3l-18.88.05-.02-9.38-9.37.02v37.59s9.38.07,9.38.07v9.33s-9.39.01-9.39.01v9.52s18.89,0,18.89,0v-18.45s-.44-.41-.44-.41l-9.06-.05v-18.87s9.5.03,9.5.03v18.71s.16.18.16.18l9.22-.02v9.39s9.49-.03,9.49-.03l-.1,9.53h18.86s.02-9.48.02-9.48h9.32s.03-9.38.03-9.38l-9.37-.06v-9.34s9.35,0,9.35,0v-9.5s9.39,0,9.39,0v9.5s9.5,0,9.5,0v-9.5s28.24,0,28.24,0l-.02,18.9-9.46-.05v-9.35s-18.77,0-18.77,0v18.76s46.98,0,46.98,0l.02,9.5h28.26s.01-9.52.01-9.52h-9.38s0-9.36,0-9.36l9.39.02v-18.89s-18.77,0-18.77,0v9.5s-9.5,0-9.5,0v9.44s-9.37-.07-9.37-.07l-.02-18.86h9.39s0-18.74,0-18.74h28.26s0-37.76,0-37.76h-18.51s-.25.25-.25.25v9.25s9.4,0,9.4,0l-.04,18.74h-18.86s0,9.51,0,9.51l-9.38-.05v-18.8s9.39-.02,9.39-.02l-.03-9.38h-65.86s-.07,9.39-.07,9.39ZM56.87,150.68l-.38.31.02,9.08h9.48s0-9.39,0-9.39h-9.14ZM94.21,169.44l.05-9.36-9.49-.04-.04-9.36h-9.37s0,18.77,0,18.77h18.4s.45-.01.45-.01ZM65.94,235.35v-65.88s-65.9,0-65.9,0v65.9s65.9-.03,65.9-.03Z"/>
  <path d="M94.36,18.8h-9.59s-.04,9.38-.04,9.38h9.24s.26,9.5.26,9.5h-9.5s.04,9.37.04,9.37l9.46.09v9.28c.22.09.25.1.14.06l9.26-.08v9.52s9.34,0,9.34,0l.04-9.49,9.33-.03v-9.34s9.52.03,9.52.03v-.17s-.03-18.75-.03-18.75h18.78s0-9.25,0-9.25l-.32-.13h-27.96s.06,18.87.06,18.87h-9.4s-.01-18.83-.01-18.83l9.35-.08v-9.31s-9.33,0-9.33,0V.07s9.36-.01,9.36-.01l.03,9.35h9.45s0-9.34,0-9.34l9.38-.02v9.34s9.38.04,9.38.04V.06s9.5,0,9.5,0v9.38s-9.49.01-9.49.01v8.98s.31.36.31.36h9.19s0,18.88,0,18.88h-9.5s0,18.73,0,18.73h9.5s0,18.88,0,18.88l-9.19.02-.31.12v18.75s9.5,0,9.5,0v-9.51s9.25,0,9.25,0l.11-.31.06-9.07h47.06s.01,9.39.01,9.39h-18.89s.01,18.85.01,18.85l-9.39.02v-9.38s-9.47,0-9.47,0v9.4s-9.4-.02-9.4-.02l.06,9.36h37.57s.02,9.52.02,9.52h-9.38s-.03,18.74-.03,18.74h-9.36s-.05-9.39-.05-9.39h-9.65s.15-9.34.15-9.34h-18.7s0,9.35,0,9.35h-9.5s0-9.35,0-9.35h-18.7s-.09-9.5-.09-9.5l-9.44.05v37.71s-9.39-.11-9.39-.11v-37.68s9.35,0,9.35,0v-9.35s-9.33,0-9.33,0l-.05,9.38h-9.35s0-9.37,0-9.37l9.36-.04.04-9.36h-9.4s0,9.39,0,9.39l-9.38-.02v-28.25s9.06-.01,9.06-.01l.32-.36v-8.98s-9.4-.01-9.4-.01l.03-8.93-.49-.58-9.02.08v18.8s-9.38-.01-9.38-.01V18.8s9.38,0,9.38,0V.07s18.87-.01,18.87-.01v9.39s-9.36,0-9.36,0l.11,9.35ZM132.43,47.06l-.55.48.03,8.87h9.33s0-9.34,0-9.34h-8.81ZM131.89,65.89l-.05-9.44h-9.45s0,9.48,0,9.48l9.49-.04ZM150.62,74.93v-18.47s-9.34-.02-9.34-.02l-.08,9.51h-9.31s.02,9.35.02,9.35h18.41s.31-.37.31-.37ZM103.62,75.43v9.25s18.74,0,18.74,0v-18.71s-9.35-.04-9.35-.04v9.35s-9.06.02-9.06.02l-.33.12ZM131.88,94.18l-.02-9.5h-9.46s0,9.51,0,9.51h9.49ZM169.93,84.68l-.43.31v9.19s9.36,0,9.36,0l-.02-9.5h-8.91ZM150.64,112.91l-.02-9.35h-18.72s.02,9.37.02,9.37l18.73-.02ZM160.14,122.4l-.03-9.45h-9.49s0,9.49,0,9.49l9.52-.04Z"/>
  <polygon points="93.97 28.18 94.36 18.8 103.62 18.79 103.63 28.18 93.97 28.18"/>
  <polygon points="94.23 47.14 94.23 37.68 103.63 37.68 103.62 47.08 94.23 47.14"/>
  <polygon points="178.67 131.79 178.89 141.18 160.13 141.19 160.13 131.8 178.67 131.79"/>
  <rect x="207.12" y="207.18" width="9.5" height="9.44"/>
  <polygon points="141.24 197.68 141.24 207.18 131.89 207.18 131.89 216.53 141.25 216.59 141.22 225.95 131.9 225.96 131.88 235.45 113.02 235.44 113.11 225.91 131.83 225.92 131.87 216.58 122.36 216.53 122.36 207.18 113.06 207.18 113.01 197.68 122.39 197.68 122.39 207.18 131.86 207.18 131.87 197.68 141.24 197.68"/>
  <path d="M103.62,188.24v18.94s9.44,0,9.44,0l.05,18.73-9.49.03v-9.39s-9.22.02-9.22.02l-.17.41v18.45s-18.88,0-18.88,0v-9.52s9.37-.01,9.37-.01v-9.33s-9.38-.07-9.38-.07v-37.59s9.37-.02,9.37-.02l.02,9.38,18.88-.05ZM94.23,216.4v-18.71s-9.48-.03-9.48-.03v18.87s9.06.05,9.06.05l.43-.18Z"/>
  <path d="M141.17,160.07l.06,18.88h-9.33s-.04,9.36-.04,9.36l-28.24-.07v-9.29s-9.4-.01-9.4-.01l.03-8.94-.49-.55h-18.4s0-18.76,0-18.76h9.37s.04,9.35.04,9.35l9.49.04-.05,9.36.18.02,18.62-.06v-9.34s9.39.03,9.39.03v9.33s9.45,0,9.45,0l.02-9.36h9.3ZM122.39,178.89l-.05-9.44h-9.33s0,9.48,0,9.48l9.38-.04Z"/>
  <path d="M207.12,216.62v9.3s9.5,0,9.5,0v-9.3s9.36-.06,9.36-.06l.04-9.37h-9.4s0-9.5,0-9.5h18.76s0,18.9,0,18.9l-9.39-.02v9.36s9.39,0,9.39,0v9.52s-28.27,0-28.27,0l-.02-9.5h-46.98s0-18.76,0-18.76h18.76s.01,9.35.01,9.35l9.46.05.02-18.9h-28.23s0,9.5,0,9.5h-9.5s0-9.5,0-9.5h-9.39s0-9.37,0-9.37l9.39-.02v-28.21s-9.46,0-9.46,0l.07-9.39h65.86s.03,9.38.03,9.38l-9.39.02v18.8s9.38.05,9.38.05v-9.52s18.86,0,18.86,0l.04-18.74h-9.4s0-9.26,0-9.26l-.25-.25h-9.25s0-9.39,0-9.39h9.5s0,9.14,0,9.14l.25.25h18.51s0,37.76,0,37.76h-28.26s0,18.73,0,18.73h-9.39s.02,18.87.02,18.87l9.37.07ZM188.37,188.28v-28.22s-28.25,0-28.25,0v28.25s28.25-.04,28.25-.04Z"/>
  <path d="M65.94,65.88l-65.9.03V0s65.89,0,65.89,0v65.88ZM56.54,56.48V9.41s-47.07,0-47.07,0v47.1s47.07-.03,47.07-.03Z"/>
  <path d="M235.4,65.88l-65.89.03V0s65.89,0,65.89,0v65.88ZM226.01,56.48V9.41s-47.08,0-47.08,0v47.1s47.08-.03,47.08-.03Z"/>
  <path d="M65.94,235.35l-65.9.03v-65.9s65.89,0,65.89,0v65.88ZM56.54,225.95v-47.07s-47.07,0-47.07,0v47.1s47.07-.03,47.07-.03Z"/>
  <polygon points="84.74 131.51 94.23 131.79 94.27 122.45 103.62 122.43 103.63 150.67 94.24 150.69 94.24 141.18 84.72 141.18 84.74 131.51"/>
  <path d="M94.27,122.45l-9.51.02-.02,9.04-9.36.29-.06-9.35h-28.21s.04-18.9.04-18.9h9.33s.03-9.07.03-9.07l-.14-.3h-9.25s0-9.5,0-9.5h-18.89s.02,18.85.02,18.85l9.49.05v9.36s-18.83.01-18.83.01v9.46s18.85.01,18.85.01v8.93s.4.44.4.44h27.85s.02,9.38.02,9.38h-9.51s0,9.18,0,9.18l.36.32h9.14s0,9.38,0,9.38h-9.48s-.02-9.07-.02-9.07l-.38-.31H18.86s0-9.5,0-9.5h18.88s0-9.22,0-9.22l-.42-.15-18.46-.02v-9.35s-9.34.05-9.34.05l-.02,37.6-9.49-.02v-37.61s9.45-.03,9.45-.03l.09-9.47-.17-.05-9.38.08v-9.4s9.48-.01,9.48-.01l.04,8.81.47.58,8.87-.05v-18.7s-18.86,0-18.86,0v-18.89s9.5,0,9.5,0v9.38s9.36,0,9.36,0v-9.38s47.13,0,47.13,0l.03,9.38h-9.51s0,9.19,0,9.19l.37.31h27.87s-.01,18.77-.01,18.77h-9.34s0,9.46,0,9.46h9.33s.05-9.49.05-9.49h9.45s.04,9.52.04,9.52ZM75.37,112.9l-.03-9.34h-18.83s.01,9.37.01,9.37l18.85-.03Z"/>
  <polygon points="226.03 131.82 226 122.48 216.63 122.44 216.62 112.93 235.39 112.92 235.39 131.8 226.03 131.82"/>
  <rect x="207.12" y="94.18" width="9.5" height="9.39"/>
  <rect x="226.01" y="84.68" width="9.38" height="9.5"/>
  <polygon points="141.26 141.17 131.85 141.19 131.86 131.78 141.22 131.8 141.26 141.17"/>
  <polygon class="cls-1" points="150.64 112.91 131.91 112.93 131.9 103.57 150.62 103.56 150.64 112.91"/>
  <polygon class="cls-1" points="131.88 94.18 122.39 94.19 122.39 84.68 131.85 84.68 131.88 94.18"/>
  <polygon class="cls-1" points="160.14 122.4 150.62 122.43 150.62 112.95 160.12 112.94 160.14 122.4"/>
  <polygon class="cls-1" points="131.89 65.89 122.4 65.93 122.39 56.46 131.84 56.45 131.89 65.89"/>
  <path class="cls-1" d="M188.37,188.28l-28.25.04v-28.25s28.23,0,28.23,0v28.22ZM178.9,178.94v-9.52s-9.4.01-9.4.01l.02,9.53,9.38-.02Z"/>
  <path class="cls-1" d="M56.54,56.48l-47.07.03V9.41s47.07,0,47.07,0v47.07ZM47.13,47.07v-28.25s-28.27-.01-28.27-.01v28.28s28.27-.02,28.27-.02Z"/>
  <path class="cls-1" d="M226.01,56.48l-47.08.03V9.41s47.08,0,47.08,0v47.07ZM216.59,47.08v-28.26s-28.26-.01-28.26-.01v28.28s28.26,0,28.26,0Z"/>
  <path class="cls-1" d="M56.54,225.95l-47.07.03v-47.1s47.07,0,47.07,0v47.07ZM47.13,216.54v-28.25s-28.27,0-28.27,0v28.28s28.27-.02,28.27-.02Z"/>
  <polygon class="cls-1" points="75.37 112.9 56.52 112.93 56.51 103.56 75.34 103.56 75.37 112.9"/>
  <polygon class="cls-1" points="122.39 178.89 113.01 178.93 113.01 169.45 122.34 169.45 122.39 178.89"/>
  <polygon points="178.9 178.94 169.52 178.96 169.5 169.43 178.89 169.42 178.9 178.94"/>
  <polygon points="47.13 47.07 18.86 47.09 18.86 18.81 47.12 18.82 47.13 47.07"/>
  <polygon points="216.59 47.08 188.33 47.09 188.33 18.81 216.59 18.82 216.59 47.08"/>
  <polygon points="47.13 216.54 18.86 216.57 18.86 188.29 47.13 188.29 47.13 216.54"/>
</svg>